<svg width="120" height="115" viewBox="0 0 120 115" fill="none" xmlns="http://www.w3.org/2000/svg">
<path d="M87.5625 1.46501C61.7057 -4.89518 52.6706 10.8567 49.5203 21.7938C48.4503 25.4792 43.9923 26.9652 40.9013 24.647C35.3139 20.4267 26.8138 16.2064 17.2438 19.2973C12.2507 20.9022 6.00942 25.2414 3.86954 29.5806C-5.81935 49.3745 4.04786 71.3677 18.4326 90.1511C19.027 90.9832 19.6809 91.756 20.2753 92.5881C21.9991 94.9658 27.2299 101.683 34.7789 107.508C40.7824 112.204 45.8349 113.927 47.5587 114.344C53.265 115.473 58.9119 114.879 63.905 112.144C64.6777 111.728 64.2617 110.599 63.4295 110.718C53.2056 112.085 44.5272 106.795 35.9677 96.8679C34.8978 95.5008 30.2019 88.8434 28.2404 85.9308C27.646 85.0391 27.0516 84.1475 26.4571 83.2559C23.4256 78.2629 21.1074 73.3292 19.9781 68.6928C9.99197 27.738 34.4222 35.7031 46.6077 40.9933C49.6392 42.301 53.2056 41.1122 54.7511 38.1401C58.8525 30.2939 67.412 17.3358 77.9925 21.14C106.524 31.4233 105.038 90.9238 85.8982 95.798C75.0799 98.5322 62.0623 89.5566 59.328 74.6964C58.0798 67.9795 62.0623 61.3816 68.482 59.1823L76.2093 56.5074C76.2093 56.5074 77.2198 56.1508 77.8142 55.5564C78.2303 55.0808 78.9436 54.3675 78.9436 53.5354C79.003 51.5738 78.8842 49.3745 75.7338 48.9584C74.0694 48.7801 72.4051 48.7801 70.7407 48.9584C64.3211 49.6717 39.9503 57.1018 32.7579 66.1963C28.6565 71.3677 29.3698 77.609 31.2124 82.8398C31.9852 85.0986 35.3139 84.6825 35.5516 82.3048C35.6705 80.9377 35.9083 79.63 36.3838 78.3817C39.4747 70.5355 47.9748 66.3746 49.758 80.165C52.1951 99.0078 71.1568 122.665 93.7444 108.459C128.28 86.7629 131.252 12.1644 87.5625 1.46501Z" fill="url(#paint0_linear_2937_38054)"/>
<defs>
<linearGradient id="paint0_linear_2937_38054" x1="46.6665" y1="114.081" x2="71.3422" y2="-2.00938" gradientUnits="userSpaceOnUse">
<stop offset="0.2414" stop-color="#662D91"/>
<stop offset="0.3471" stop-color="#6A2C8E"/>
<stop offset="0.4661" stop-color="#742B8A"/>
<stop offset="0.5917" stop-color="#842A83"/>
<stop offset="0.7219" stop-color="#9A2779"/>
<stop offset="0.8555" stop-color="#B5236D"/>
<stop offset="0.9902" stop-color="#D71C5D"/>
<stop offset="1" stop-color="#DA1C5C"/>
</linearGradient>
</defs>
</svg>
